Coordinates
version=1
nRows=8
nColumns=42
inDegrees=yes

Units are S.I. units (second, meters, Newtons, ...)
If the header above contains a line with 'inDegrees', this indicates whether rotational values are in degrees (yes) or radians (no).

endheader
time	pelvis_tilt	pelvis_list	pelvis_rotation	pelvis_tx	pelvis_ty	pelvis_tz	hip_flexion_r	hip_adduction_r	hip_rotation_r	knee_angle_r	knee_adduction_r	knee_angle_r_beta	ankle_angle_r	subtalar_angle_r	mtp_angle_r	hip_flexion_l	hip_adduction_l	hip_rotation_l	knee_angle_l	knee_adduction_l	knee_angle_l_beta	ankle_angle_l	subtalar_angle_l	mtp_angle_l	lumbar_extension	lumbar_bending	lumbar_rotation	arm_flex_r	arm_add_r	arm_rot_r	elbow_flex_r	pro_sup_r	wrist_flex_r	wrist_dev_r	arm_flex_l	arm_add_l	arm_rot_l	elbow_flex_l	pro_sup_l	wrist_flex_l	wrist_dev_l
      0.97000000	     -8.02292321	      2.05562858	      0.58688391	     -0.67780286	      0.93034402	     -0.08867471	     -4.26931094	      0.23565182	     -4.81413182	     35.21183684	     -2.75436418	      0.61456249	      5.56270174	     -5.83870757	     -7.63670183	     31.56667440	      5.68644753	      6.97627639	     24.73633413	     -0.69324771	      0.43173048	      4.42747854	     -7.97062428	     -7.63670183	     -1.61104367	     -8.08055479	      4.21593435	     -0.24932368	    -11.52252749	     -2.68558912	     27.16558176	     90.00000001	      0.00000000	      0.00000000	    -11.18760978	    -12.09088993	    -13.83087730	     17.82982620	     90.00000001	      0.00000000	      0.00000000
      0.98000000	     -7.96978384	      2.08218962	      0.68151532	     -0.66577514	      0.93308319	     -0.08965780	     -2.52536399	     -0.09215644	     -5.21549388	     38.87882538	     -2.96261542	      0.67856351	      4.44612136	     -7.34699601	     -7.63412149	     30.30909677	      5.89077359	      6.63457168	     24.07174685	     -1.03808497	      0.42013124	      5.31418328	     -7.13645099	     -7.63412149	     -1.66090024	     -8.11566206	      3.98881605	     -0.69293828	    -11.20612117	     -2.33845343	     26.34300417	     90.00000001	      0.00000000	      0.00000000	    -10.69652693	    -12.12096339	    -13.56806907	     18.31031189	     90.00000001	      0.00000000	      0.00000000
      0.99000000	     -8.22512215	      2.03551683	      0.68483258	     -0.65426327	      0.93530389	     -0.09065391	     -0.26522080	     -0.41874046	     -5.12725865	     42.69234745	     -2.83908084	      0.74512203	      3.86336868	     -9.49911266	     -7.62898480	     29.58839762	      5.96385783	      6.14538890	     23.71224417	     -1.35049991	      0.41385673	      5.98709677	     -6.22503570	     -7.62898480	     -1.34857933	     -8.02307720	      3.83334002	     -1.20327116	    -10.95472421	     -2.02018206	     25.66833517	     90.00000001	      0.00000000	      0.00000000	    -10.32774861	    -12.13825023	    -12.85689726	     18.99011183	     90.00000001	      0.00000000	      0.00000000
      1.00000000	     -8.06637272	      1.97806458	      0.81241638	     -0.64226016	      0.93815725	     -0.09159567	      1.38374799	     -0.63777601	     -5.76897330	     45.89756491	     -3.25294129	      0.80106363	      3.50569922	    -11.00465638	     -7.62607800	     28.09401285	      6.04674527	      6.08598746	     22.81432610	     -1.54247863	      0.39818511	      6.81103692	     -5.47135680	     -7.62607800	     -1.48899037	     -7.93516754	      3.50869463	     -1.64812789	    -10.64250621	     -1.69901480	     24.91030150	     90.00000001	      0.00000000	      0.00000000	     -9.82426800	    -12.17025201	    -12.44309557	     19.51008215	     90.00000001	      0.00000000	      0.00000000
      1.01000000	     -7.96560788	      1.85146070	      0.99655024	     -0.63048535	      0.94095086	     -0.09259820	      3.07118438	     -0.84067173	     -6.17407984	     48.77737641	     -3.38521651	      0.85132582	      3.44965145	    -12.48923512	     -7.62344542	     26.73066778	      6.08532328	      6.14154948	     22.03734658	     -1.73656198	      0.38462426	      7.35690225	     -4.83599733	     -7.62344542	     -1.57857335	     -7.74057252	      3.12667648	     -2.14202111	    -10.36144474	     -1.45946011	     24.29958429	     90.00000001	      0.00000000	      0.00000000	     -9.29393660	    -12.24469834	    -11.94685760	     20.10985814	     90.00000001	      0.00000000	      0.00000000
      1.02000000	     -8.06377029	      1.71891639	      1.20787654	     -0.61916487	      0.94346772	     -0.09367388	      5.03994687	     -1.11230989	     -6.14348251	     51.54105929	     -3.05073487	      0.89956118	      3.23107970	    -14.51090333	     -7.61848455	     25.61976125	      6.16083019	      6.42331443	     21.26247016	     -1.95552935	      0.37110011	      7.59467055	     -4.53867853	     -7.61848455	     -1.46332167	     -7.52658086	      2.75718832	     -2.66268994	    -10.06164899	     -1.32444771	     23.75268032	     90.00000001	      0.00000000	      0.00000000	     -8.85522655	    -12.38477038	    -10.80436466	     20.96965651	     90.00000001	      0.00000000	      0.00000000
      1.03000000	     -7.91162001	      1.49534259	      1.49344791	     -0.60765583	      0.94631801	     -0.09477889	      6.59387257	     -1.23584791	     -6.46219433	     53.68386197	     -2.99582746	      0.93696015	      3.42687564	    -15.55104182	     -7.61165007	     24.11850720	      6.11361292	      6.86253805	     20.29407211	     -2.09124517	      0.35419838	      7.88374874	     -4.40864565	     -7.61165007	     -1.62551845	     -7.18881929	      2.26701802	     -3.12775969	     -9.79124622	     -1.32295771	     23.26966735	     90.00000001	      0.00000000	      0.00000000	     -8.35394262	    -12.53400091	     -9.60413799	     21.76936474	     90.00000001	      0.00000000	      0.00000000
      1.04000000	     -7.67847244	      1.21357598	      1.85086466	     -0.59604120	      0.94919677	     -0.09591733	      7.97495328	     -1.31879109	     -6.93279998	     55.38354269	     -2.94955499	      0.96662517	      3.78141844	    -16.02902675	     -7.60809442	     22.48450774	      5.98938092	      7.27334519	     19.23284154	     -2.24199813	      0.33567641	      8.25904128	     -3.84721222	     -7.60809442	     -1.86220009	     -6.77449245	      1.68351120	     -3.61799830	     -9.54581297	     -1.31466119	     22.87520514	     90.00000001	      0.00000000	      0.00000000	     -7.69303738	    -12.60227666	     -9.02054528	     22.30684070	     90.00000001	      0.00000000	      0.00000000
